<?xml version="1.0" standalone="no"?>
<!DOCTYPE svg PUBLIC "-//W3C//DTD SVG 20010904//EN"
 "http://www.w3.org/TR/2001/REC-SVG-20010904/DTD/svg10.dtd">
<svg version="1.0" xmlns="http://www.w3.org/2000/svg"
 width="256.000000pt" height="256.000000pt" viewBox="0 0 256.000000 256.000000"
 preserveAspectRatio="xMidYMid meet">

<g transform="translate(0.000000,256.000000) scale(0.100000,-0.100000)"
fill="#000000" stroke="none">
<path d="M102 2539 c-74 -37 -113 -120 -97 -206 6 -34 65 -96 513 -546 l507
-507 -502 -503 c-276 -276 -507 -515 -512 -530 -39 -102 34 -226 142 -244 93
-15 70 -33 620 515 l507 507 503 -502 c276 -276 515 -507 530 -512 102 -39
226 34 244 142 15 93 33 70 -515 619 l-507 508 507 507 c548 550 530 527 515
620 -18 108 -142 181 -244 142 -15 -5 -254 -236 -530 -512 l-503 -502 -502
502 c-277 276 -516 507 -531 512 -44 17 -98 13 -145 -10z"/>
</g>
</svg>
